<?xml version="1.0" encoding="utf-8"?>
<!-- Generator: $$$/GeneralStr/196=Adobe Illustrator 27.6.0, SVG Export Plug-In . SVG Version: 6.00 Build 0)  -->
<svg version="1.1" id="Capa_1" xmlns="http://www.w3.org/2000/svg" xmlns:xlink="http://www.w3.org/1999/xlink" x="0px" y="0px"
	 viewBox="0 0 294.8 122.3" style="enable-background:new 0 0 294.8 122.3;" xml:space="preserve">
<style type="text/css">
	.st0{fill-rule:evenodd;clip-rule:evenodd;fill:#15A48D;}
	.st1{fill:#74898D;}
	.st2{fill:#15A48D;}
	.st3{fill-rule:evenodd;clip-rule:evenodd;fill:#FFFFFF;}
	.st4{fill:#FFFFFF;}
</style>
<g>
	<path id="XMLID_00000042005128922489247620000005014474029020658092_" class="st0" d="M65.5,16c-0.3,0-0.6,0-0.8,0
		c-0.3,0-0.5,0-0.8,0c-0.3,0-0.5,0-0.8,0c-0.3,0-0.5,0-0.8,0c-0.3,0-0.5,0-0.8,0.1c-0.3,0-0.5,0-0.8,0.1c-0.3,0-0.5,0.1-0.8,0.1
		c-0.3,0-0.5,0.1-0.8,0.1c-0.3,0-0.5,0.1-0.8,0.1c-0.3,0-0.5,0.1-0.8,0.1c-0.3,0-0.5,0.1-0.8,0.1c-0.3,0-0.5,0.1-0.8,0.1
		c-0.2,0-0.5,0.1-0.7,0.1c-0.2,0.1-0.5,0.1-0.7,0.2c-0.2,0.1-0.5,0.1-0.7,0.2c-0.2,0.1-0.5,0.1-0.7,0.2c-0.2,0.1-0.5,0.1-0.7,0.2
		c-0.2,0.1-0.5,0.1-0.7,0.2C51.5,18,51.2,18,51,18.1c-0.2,0.1-0.5,0.1-0.7,0.2c-0.2,0.1-0.5,0.2-0.7,0.2c-0.2,0.1-0.5,0.2-0.7,0.2
		c-0.2,0.1-0.4,0.2-0.7,0.2c-0.2,0.1-0.4,0.2-0.7,0.3c-0.2,0.1-0.4,0.2-0.7,0.3c-0.2,0.1-0.4,0.2-0.7,0.3c-0.2,0.1-0.4,0.2-0.6,0.3
		c-0.2,0.1-0.4,0.2-0.6,0.3c-0.2,0.1-0.4,0.2-0.6,0.3c-0.2,0.1-0.4,0.2-0.6,0.3c-0.2,0.1-0.4,0.2-0.6,0.3c-0.2,0.1-0.4,0.2-0.6,0.3
		c-0.2,0.1-0.4,0.2-0.6,0.3c-0.2,0.1-0.4,0.2-0.6,0.3c-0.2,0.1-0.4,0.2-0.6,0.4c-0.2,0.1-0.4,0.2-0.6,0.4c-0.2,0.1-0.4,0.2-0.6,0.4
		c-0.2,0.1-0.4,0.3-0.6,0.4c-0.2,0.1-0.4,0.3-0.6,0.4c-0.2,0.1-0.4,0.3-0.6,0.4c-0.2,0.1-0.4,0.3-0.5,0.4c-0.2,0.1-0.4,0.3-0.5,0.4
		c-0.2,0.1-0.4,0.3-0.5,0.4c-0.2,0.1-0.3,0.3-0.5,0.4c-0.2,0.1-0.3,0.3-0.5,0.4c-0.2,0.1-0.3,0.3-0.5,0.4c-0.2,0.1-0.3,0.3-0.5,0.4
		c-0.2,0.1-0.3,0.3-0.5,0.5c-0.2,0.2-0.3,0.3-0.5,0.5c-0.2,0.2-0.3,0.3-0.5,0.5c-0.2,0.2-0.3,0.3-0.5,0.5c-0.2,0.2-0.3,0.3-0.5,0.5
		c-0.2,0.2-0.3,0.3-0.5,0.5c-0.1,0.2-0.3,0.3-0.4,0.5c-0.1,0.2-0.3,0.3-0.4,0.5c-0.1,0.2-0.3,0.3-0.4,0.5c-0.1,0.2-0.3,0.3-0.4,0.5
		c-0.1,0.2-0.3,0.3-0.4,0.5c-0.1,0.2-0.3,0.3-0.4,0.5c-0.1,0.2-0.3,0.3-0.4,0.5c-0.1,0.2-0.3,0.4-0.4,0.5c-0.1,0.2-0.3,0.4-0.4,0.5
		c-0.1,0.2-0.3,0.4-0.4,0.5c-0.1,0.2-0.2,0.4-0.4,0.5c-0.1,0.2-0.2,0.4-0.4,0.5c-0.1,0.2-0.2,0.4-0.4,0.6c-0.1,0.2-0.2,0.4-0.3,0.6
		c-0.1,0.2-0.2,0.4-0.3,0.6c-0.1,0.2-0.2,0.4-0.3,0.6c-0.1,0.2-0.2,0.4-0.3,0.6c-0.1,0.2-0.2,0.4-0.3,0.6c-0.1,0.2-0.2,0.4-0.3,0.6
		c-0.1,0.2-0.2,0.4-0.3,0.6c-0.1,0.2-0.2,0.4-0.3,0.6c-0.1,0.2-0.2,0.4-0.3,0.6c-0.1,0.2-0.2,0.4-0.3,0.6c-0.1,0.2-0.2,0.4-0.3,0.6
		c-0.1,0.2-0.2,0.4-0.3,0.6c-0.1,0.2-0.2,0.4-0.3,0.6c-0.1,0.2-0.2,0.4-0.2,0.6c-0.1,0.2-0.2,0.4-0.2,0.6c-0.1,0.2-0.2,0.4-0.2,0.6
		c-0.1,0.2-0.1,0.4-0.2,0.6c-0.1,0.2-0.1,0.4-0.2,0.6c-0.1,0.2-0.1,0.4-0.2,0.6c-0.1,0.2-0.1,0.4-0.2,0.6c-0.1,0.2-0.1,0.4-0.2,0.6
		c-0.1,0.2-0.1,0.4-0.2,0.6c-0.1,0.2-0.1,0.4-0.2,0.6c-0.1,0.2-0.1,0.4-0.2,0.6C20,51.8,20,52,19.9,52.2c0,0.2-0.1,0.4-0.1,0.6
		c0,0.2-0.1,0.4-0.1,0.6c0,0.2-0.1,0.4-0.1,0.6c0,0.2-0.1,0.4-0.1,0.6c0,0.2-0.1,0.4-0.1,0.6c0,0.2-0.1,0.4-0.1,0.6
		c0,0.2-0.1,0.4-0.1,0.6c0,0.2-0.1,0.4-0.1,0.6c0,0.2-0.1,0.4-0.1,0.6c0,0.2,0,0.4-0.1,0.6c0,0.2,0,0.4-0.1,0.6c0,0.2,0,0.4-0.1,0.6
		c0,0.2,0,0.4,0,0.6c0,0.2,0,0.4,0,0.6c0,0.2,0,0.4,0,0.6c0,0.2,0,0.4,0,0.6c0,0.2,0,0.4,0,0.6c0,0.2,0,0.4,0,0.6c0,0.2,0,0.4,0,0.6
		c0,0.2,0,0.4,0,0.6c0,0.2,0,0.4,0,0.6c0,0.2,0,0.4,0,0.6c0,0.2,0,0.4,0,0.6c0,0.2,0,0.4,0,0.6c0,0.2,0,0.4,0.1,0.6
		c0,0.2,0,0.4,0.1,0.6c0,0.2,0,0.4,0.1,0.6c0,0.2,0.1,0.4,0.1,0.6c0,0.2,0.1,0.4,0.1,0.6c0,0.2,0.1,0.4,0.1,0.6
		c0,0.2,0.1,0.4,0.1,0.6c0,0.2,0.1,0.4,0.1,0.6c0,0.2,0.1,0.4,0.1,0.6c0,0.2,0.1,0.4,0.1,0.6c0,0.2,0.1,0.4,0.1,0.6
		c0,0.2,0.1,0.4,0.2,0.6c0.1,0.2,0.1,0.4,0.2,0.6c0.1,0.2,0.1,0.4,0.2,0.6c0.1,0.2,0.1,0.4,0.2,0.6c0.1,0.2,0.1,0.4,0.2,0.6
		c0.1,0.2,0.1,0.4,0.2,0.6c0.1,0.2,0.1,0.4,0.2,0.6c0.1,0.2,0.1,0.4,0.2,0.6c0.1,0.2,0.1,0.4,0.2,0.6c0.1,0.2,0.2,0.4,0.2,0.6
		c0.1,0.2,0.2,0.4,0.2,0.6s0.2,0.4,0.3,0.6c0.1,0.2,0.2,0.4,0.3,0.6c0.1,0.2,0.2,0.4,0.3,0.6c0.1,0.2,0.2,0.4,0.3,0.6
		c0.1,0.2,0.2,0.4,0.3,0.6c0.1,0.2,0.2,0.4,0.3,0.6c0.1,0.2,0.2,0.4,0.3,0.6c0.1,0.2,0.2,0.4,0.3,0.5c0.1,0.2,0.2,0.4,0.3,0.5
		c0.1,0.2,0.2,0.4,0.3,0.5c0.1,0.2,0.2,0.4,0.3,0.5c0.1,0.2,0.2,0.4,0.4,0.5c0.1,0.2,0.2,0.4,0.4,0.5c0.1,0.2,0.2,0.3,0.4,0.5
		c0.1,0.2,0.3,0.3,0.4,0.5c0.1,0.2,0.3,0.3,0.4,0.5c0.1,0.2,0.3,0.3,0.4,0.5c0.1,0.2,0.3,0.3,0.4,0.5c0.1,0.2,0.3,0.3,0.4,0.5
		c0.1,0.2,0.3,0.3,0.4,0.5c0.1,0.2,0.3,0.3,0.4,0.5c0.1,0.2,0.3,0.3,0.4,0.5c0.1,0.2,0.3,0.3,0.5,0.5c0.2,0.2,0.3,0.3,0.5,0.5
		c0.2,0.2,0.3,0.3,0.5,0.5c0.2,0.1,0.3,0.3,0.5,0.4c0.2,0.1,0.3,0.3,0.5,0.4c0.2,0.1,0.3,0.3,0.5,0.4c0.2,0.1,0.3,0.3,0.5,0.4
		c0.2,0.1,0.3,0.3,0.5,0.4c0.2,0.1,0.4,0.3,0.5,0.4c0.2,0.1,0.4,0.3,0.5,0.4c0.2,0.1,0.4,0.3,0.5,0.4c0.2,0.1,0.4,0.3,0.6,0.4
		c0.2,0.1,0.4,0.3,0.6,0.4c0.2,0.1,0.4,0.2,0.6,0.4c0.2,0.1,0.4,0.2,0.6,0.4c0.2,0.1,0.4,0.2,0.6,0.4c0.2,0.1,0.4,0.2,0.6,0.3
		c0.2,0.1,0.4,0.2,0.6,0.3c0.2,0.1,0.4,0.2,0.6,0.3c0.2,0.1,0.4,0.2,0.6,0.3c0.2,0.1,0.4,0.2,0.6,0.3c0.2,0.1,0.4,0.2,0.7,0.3
		c0.2,0.1,0.4,0.2,0.7,0.3c0.2,0.1,0.4,0.2,0.7,0.3c0.2,0.1,0.5,0.2,0.7,0.3c0.2,0.1,0.5,0.2,0.7,0.3c0.2,0.1,0.5,0.2,0.7,0.3
		c0.2,0.1,0.5,0.2,0.7,0.2c0.2,0.1,0.5,0.2,0.7,0.2c0.2,0.1,0.5,0.2,0.7,0.2c0.2,0.1,0.4,0.1,0.6,0.2c0.2,0.1,0.4,0.1,0.6,0.1
		c0.1,0,0.2,0,0.3,0.1c0.1,0,0.3,0.1,0.4,0.1c0.2,0,0.3,0.1,0.5,0.1c0.2,0,0.4,0.1,0.6,0.1c0.2,0,0.4,0.1,0.6,0.1
		c0.2,0,0.5,0.1,0.7,0.1c0.2,0.1,0.5,0.1,0.7,0.2c0.3,0.1,0.5,0.1,0.8,0.2c0.3,0.1,0.6,0.1,0.9,0.2c0.3,0.1,0.6,0.1,0.9,0.2
		c0.3,0.1,0.6,0.1,1,0.2c0.3,0.1,0.7,0.1,1,0.2c0.3,0.1,0.7,0.1,1,0.2c0.4,0.1,0.7,0.1,1.1,0.2c0.4,0.1,0.7,0.1,1.1,0.1
		c0.4,0,0.7,0.1,1.1,0.1c0.4,0,0.8,0.1,1.1,0.1c0.4,0,0.8,0.1,1.1,0.1c0.4,0,0.8,0.1,1.2,0.1c0.4,0,0.8,0.1,1.2,0.1
		c0.4,0,0.8,0,1.2,0.1c0.4,0,0.8,0,1.2,0c0.4,0,0.8,0,1.1,0c0.4,0,0.8,0,1.1,0c0.4,0,0.7,0,1.1,0c0.4,0,0.7,0,1.1-0.1
		c0.4,0,0.7-0.1,1.1-0.1c0.4,0,0.7-0.1,1-0.1c0,0,0.1,0,0.2,0c-3.3-0.2-16.9-1.4-30.7-9.3c9.6,3.2,24,6.4,41.9,5.5
		c-5.8-0.6-33.4-3.7-53.2-18.1c10.7,4.6,31.8,11.7,61.5,12.6c-7.6-1.1-44.2-7-67.3-24.3c0-0.2-0.1-0.4-0.1-0.5
		c7.7,4.1,33.2,16,73.9,19.3c-8.5-1.6-50.1-9.9-74.5-29.1c0-0.1,0-0.3,0-0.4c1.1,0.6,28.7,16.7,80,20.6c-9.2-1.6-53-10-78.8-29.6
		C32,32.5,49,15.2,79.6,17.6C79.6,17.6,74,15.7,65.5,16z"/>
	<g>
		<path class="st1" d="M85.7,49.2c0-2.1,0.4-3.9,1.3-5.5c0.9-1.6,2.2-2.9,3.9-3.8c1.7-0.9,3.7-1.3,5.9-1.3c3.2,0,5.8,0.9,7.8,2.6
			c2,1.7,3.1,4.1,3.4,7l0,1.4c0,3.2-1,5.8-3,7.7c-2,1.9-4.7,2.9-8.1,2.9c-3.4,0-6.1-1-8.1-2.9s-3-4.5-3-7.9V49.2z M92,49.6
			c0,2,0.4,3.5,1.3,4.5c0.8,1,2,1.6,3.6,1.6c1.5,0,2.7-0.5,3.6-1.6c0.9-1,1.3-2.7,1.3-5c0-1.9-0.4-3.4-1.3-4.5
			c-0.9-1.1-2.1-1.6-3.6-1.6c-1.5,0-2.7,0.5-3.6,1.6C92.4,45.7,92,47.4,92,49.6z"/>
		<path class="st1" d="M116.8,41.7L116.8,41.7c1.7-1.9,4-3.1,6.9-3.1c2.5,0,4.4,0.6,5.6,1.9c1.2,1.3,1.8,3.2,1.9,5.8V59
			c0,0.5-0.4,0.9-0.9,0.9h-4.6c-0.5,0-0.9-0.4-0.9-0.9V46.5c0-1.2-0.3-2-0.9-2.6c-0.6-0.5-1.5-0.8-2.9-0.8c-1,0-1.8,0.2-2.6,0.6
			c-0.9,0.5-1.4,1.6-1.4,2.7l0,12.6c0,0.5-0.4,0.9-0.9,0.9h-4.6c-0.5,0-0.9-0.4-0.9-0.9V40.3c0-0.8,0.6-1.4,1.4-1.4l2,0
			C115.7,39,116.8,40.2,116.8,41.7z"/>
		<path class="st1" d="M149.4,59.4c0-0.1-0.1-0.2-0.1-0.2c-0.2-0.5-0.8-0.8-1.3-0.4c-1.4,1-3,1.4-5,1.4c-2.3,0-4.2-0.6-5.7-1.8
			c-1.5-1.2-2.3-2.7-2.3-4.5c0-2.2,0.9-3.9,2.8-5.1c1.8-1.2,4.5-1.8,8-1.8h2c0.5,0,0.9-0.4,0.9-0.9v-0.3c0-1-0.3-1.7-0.8-2.3
			c-0.6-0.6-1.4-0.9-2.6-0.9c-1.1,0-1.9,0.2-2.5,0.7c-0.4,0.3-0.7,0.7-0.8,1.2c-0.1,0.4-0.4,0.7-0.8,0.7l-4.6,0c-0.5,0-1-0.5-0.9-1
			c0.2-0.8,0.6-1.6,1.2-2.4c0.8-1,2-1.8,3.6-2.4c1.5-0.6,3.3-0.9,5.2-0.9c2.9,0,5.2,0.6,6.9,1.9c1.7,1.3,2.6,3.1,2.6,5.4v9
			c0,2,0.3,3.5,0.9,4.5v0.3H150C149.7,59.8,149.5,59.7,149.4,59.4z M144.4,56c0.9,0,1.8-0.2,2.6-0.5c0.7-0.3,1.2-0.7,1.6-1.2
			c0.1-0.1,0.2-0.3,0.2-0.5l0-2.4c0-0.5-0.4-0.9-0.9-0.9h-1.5c-3.1,0-4.8,1-5,2.9l0,0.3c0,0.7,0.3,1.3,0.8,1.7S143.4,56,144.4,56z"
			/>
		<path class="st2" d="M198.8,59.4c0-0.1-0.1-0.2-0.1-0.2c-0.2-0.5-0.8-0.8-1.3-0.4c-1.4,1-3,1.4-5,1.4c-2.3,0-4.2-0.6-5.7-1.8
			c-1.5-1.2-2.3-2.7-2.3-4.5c0-2.2,0.9-3.9,2.8-5.1c1.9-1.2,4.5-1.8,8-1.8h2c0.5,0,0.9-0.4,0.9-0.9v-0.3c0-1-0.3-1.7-0.8-2.3
			c-0.6-0.6-1.4-0.9-2.6-0.9c-1.1,0-1.9,0.2-2.5,0.7c-0.4,0.3-0.7,0.7-0.8,1.2c-0.1,0.4-0.4,0.7-0.8,0.7l-4.6,0c-0.5,0-1-0.5-0.9-1
			c0.2-0.8,0.6-1.6,1.2-2.4c0.8-1,2-1.8,3.6-2.4c1.5-0.6,3.3-0.9,5.2-0.9c2.9,0,5.2,0.6,6.9,1.9c1.7,1.3,2.6,3.1,2.6,5.4v9
			c0,2,0.3,3.5,0.9,4.5l0.3,0.3h-6.2C199.2,59.8,199,59.7,198.8,59.4z M193.8,56c0.9,0,1.8-0.2,2.6-0.5c0.7-0.3,1.2-0.7,1.6-1.2
			c0.1-0.1,0.2-0.3,0.2-0.5l0-2.4c0-0.5-0.4-0.9-0.9-0.9h-1.5c-3.2,0-4.8,1-5,2.9l0,0.3c0,0.7,0.3,1.3,0.8,1.7
			C192.1,55.7,192.9,56,193.8,56z"/>
		<path class="st2" d="M228.2,39c0.5,0,0.9,0.4,0.9,0.9v19.3c0,1.8-0.5,3.4-1.4,4.8c-0.9,1.4-2.3,2.4-4,3.1c-1.7,0.7-3.7,1.1-6,1.1
			c-1.7,0-3.4-0.3-5.1-0.9c-1.2-0.5-2.3-1-3-1.7c-0.4-0.3-0.4-1-0.1-1.4l1.6-1.9c0.3-0.4,0.9-0.5,1.4-0.1c1.4,1.1,3.1,1.7,5,1.7
			c1.7,0,3-0.4,3.9-1.2c0.9-0.8,1.4-1.9,1.4-3.4V58c-1.5,1.5-3.4,2.2-5.7,2.2c-2.8,0-5.1-1-6.9-2.9c-1.7-2-2.6-4.6-2.6-7.8v-0.2
			c0-3.2,0.9-5.8,2.6-7.7c1.7-2,4-2.9,7-2.9c2.1,0,3.8,0.4,5.1,1.4l1.1,0.9l0-0.9c0-0.6,0.5-1,1-1L228.2,39z M213.8,49.7
			c0,1.9,0.4,3.4,1.3,4.5c0.9,1.1,2,1.6,3.5,1.6c1.8,0,3.1-0.6,4-1.7c0.1-0.1,0.2-0.3,0.2-0.5v-8.2c0-0.2-0.1-0.4-0.2-0.5
			c-0.8-1.1-2.2-1.7-3.9-1.7c-1.5,0-2.7,0.5-3.6,1.6C214.2,45.8,213.8,47.5,213.8,49.7z"/>
		<path class="st2" d="M232,49.2c0-2.1,0.4-3.9,1.4-5.5c0.9-1.6,2.2-2.9,3.9-3.8c1.7-0.9,3.7-1.3,5.9-1.3c3.2,0,5.8,0.9,7.8,2.6
			c2,1.7,3.1,4.1,3.4,7l0,1.4c0,3.2-1,5.8-3,7.7c-2,1.9-4.7,2.9-8.1,2.9c-3.4,0-6.1-1-8.1-2.9c-2-1.9-3-4.6-3-7.9V49.2z M238.3,49.6
			c0,2,0.4,3.5,1.3,4.5c0.8,1,2,1.6,3.6,1.6c1.5,0,2.7-0.5,3.6-1.6c0.9-1,1.3-2.7,1.3-5c0-1.9-0.4-3.5-1.3-4.5
			c-0.9-1.1-2.1-1.6-3.6-1.6c-1.5,0-2.7,0.5-3.6,1.6C238.7,45.7,238.3,47.4,238.3,49.6z"/>
		<path class="st2" d="M270.1,54.1c0-0.7-0.4-1.2-1.1-1.6c-0.8-0.4-2-0.7-3.7-1.1c-5.6-1-8.4-3.2-8.4-6.3c0-1.9,0.9-3.4,2.6-4.6
			c1.7-1.2,4-1.9,6.8-1.9c3,0,5.4,0.6,7.2,1.9c1.5,1,2.4,2.3,2.6,3.9c0.1,0.5-0.3,1-0.9,1h-4.6c-0.4,0-0.7-0.3-0.8-0.7
			c-0.1-0.5-0.4-0.9-0.8-1.3c-0.6-0.5-1.5-0.8-2.7-0.8c-1.1,0-1.9,0.2-2.5,0.6c-0.6,0.4-0.9,1-0.9,1.6c0,0.6,0.3,1.1,1,1.5
			c0.7,0.4,1.8,0.7,3.3,1s2.9,0.6,4,0.9c3.3,1.1,5,3,5,5.6c0,1.9-0.9,3.4-2.8,4.6c-1.8,1.2-4.2,1.8-7.1,1.8c-2,0-3.7-0.3-5.3-0.9
			c-1.5-0.6-2.7-1.5-3.6-2.6c-0.6-0.8-1-1.6-1.2-2.5c-0.1-0.5,0.3-1,0.9-1l4.3,0c0.4,0,0.7,0.3,0.8,0.7c0.2,0.7,0.6,1.2,1.1,1.6
			c0.8,0.5,1.8,0.8,3.1,0.8c1.2,0,2.1-0.2,2.7-0.6C269.7,55.2,270.1,54.7,270.1,54.1z"/>
		<path class="st1" d="M72,55.3h7.4c2,0,3.7,1.6,3.7,3.7v0.1c0,0.4-0.3,0.7-0.7,0.7H65.9c-1.4,0-2.5-1.1-2.5-2.5v0
			c0-0.6,0.2-1.2,0.6-1.6l10.3-12c0.1-0.1,0-0.3-0.2-0.3h-7.4c-1.6,0-2.9-1.3-2.9-2.9v-1.1c0-0.3,0.2-0.5,0.5-0.5h16.1
			c1.3,0,2.4,1.1,2.4,2.4v0c0,0.6-0.2,1.1-0.6,1.6L71.8,55C71.7,55.1,71.8,55.3,72,55.3z"/>
		<path class="st2" d="M181.9,49.6c0,3.2-0.8,5.8-2.5,7.8c-1.7,1.9-3.9,2.9-6.7,2.9c-2.4,0-4.3-0.7-5.8-2.2v8.8
			c0,0.6-0.5,1.1-1.1,1.1h-4.2c-0.6,0-1.1-0.5-1.1-1.1V40.6c0-1,0.8-1.7,1.7-1.7h3.5c0.4,0,0.7,0.3,0.7,0.7l0,1.5
			c1.5-1.6,3.6-2.6,6.1-2.6c2.9,0,5.2,1,6.8,2.9c1.6,1.9,2.4,4.6,2.4,7.9V49.6z M175.6,49.1c0-2-0.4-3.5-1.2-4.5
			c-0.8-1.1-1.9-1.6-3.4-1.6c-2,0-3.4,0.7-4.1,2v8.6c0.8,1.4,2.2,2.1,4.1,2.1C174.1,55.7,175.6,53.5,175.6,49.1z"/>
	</g>
</g>
</svg>
